<svg xmlns="http://www.w3.org/2000/svg" xmlns:xlink="http://www.w3.org/1999/xlink" xml:space="preserve" id="Capa_1"
		 x="0" y="0" style="enable-background:new 0 0 611.52 594.64" version="1.1" viewBox="0 0 611.52 594.64"><style>.st1{fill:#fff}.st2{fill:#1d1d1b}.st3{fill:none}</style>
	<circle cx="313.45" cy="298.32" r="288.97" style="fill:#094293"/>
	<path
		d="M404.86 280.53c-.45-21.57-16.97-38.81-35.17-48.31-40.68-21.21-95.97-17.71-132.94 9.66-7.08 5.47-13.25 12.22-17.52 20.11-3 5.76-4.9 11.97-5.5 18.55-.01.17-.17.3-.34.28a.31.31 0 0 1-.28-.28c-1.43-16.58 7.89-32.31 20.17-42.85 41.14-36.13 128.45-31.74 162.1 12.9 6.42 8.56 10.33 19.21 10.1 29.96 0 .17-.14.31-.31.3-.17-.02-.31-.15-.31-.32z"
		class="st1"/>
	<path
		d="M412.61 216.26c-.07-4.5-.15-9.06-.18-13.63 2.17 1.33-103.83-19.93-103.35-19.55 2.13-.25-99.6 21.23-99.16 21.18l1.33-1.64.06 13.42c0 .92-.72 1.68-1.63 1.73-.02 0-66.62 3.67-66.64 3.68a2.05 2.05 0 0 1-2.16-2.06l-.06-11.5c0-1 .68-1.83 1.61-2.05 42.17-9.73 125.32-30.52 167.49-39.76 44.41 9.27 94.92 20.49 139.43 30.52 7.22 1.67 27.7 6.29 34.79 7.92l11.59 2.68a2.16 2.16 0 0 1 1.73 2.14l-.21 15.39a1.965 1.965 0 0 1-2.19 1.92c-6.97-.82-13.93-1.69-20.86-2.54-12.83-1.59-48.23-6.13-61.59-7.85zm.46-.41c23.52 1.92 59.19 4.78 82.43 6.87l-2.19 1.97-.21-15.34 1.73 2.14c-12.89-2.58-33.55-6.86-46.61-9.54-44.77-9.26-95.21-19.97-139.56-29.88-33.74 8.52-126.11 28.64-165.21 37.9l1.63-2.06-.06 11.5-2.16-2.06 66.65-3.04-1.65 1.74.06-13.44c0-.8.58-1.47 1.33-1.62.43 0 99.85-20.21 100.26-20.04.44.48 103.79 20.68 103.74 21.68-.04 4.39-.11 8.77-.18 13.22z"
		class="st1"/>
	<path
		d="m473.19 204.58 7.74-55.78.76 1.07a74950.13 74950.13 0 0 1-172.86-31.06c-44.42 10.71-102.96 22.93-151.39 32.2l-10.21 1.92 1.68-2.3c.91 12.71 2.11 28.49 2.85 41.28.22 3.41.6 10.36.77 13.78.01.17-.12.32-.29.32-.16.01-.3-.11-.32-.26-.51-3.41-1.47-10.25-1.95-13.66-.89-6.82-2.78-20.52-3.61-27.35-.6-4.56-1.13-9.12-1.7-13.69-.13-1.06.56-2.03 1.57-2.27l.11-.03 10.11-2.39c49.57-11.77 102.25-22.54 152.36-32.51 49.07 9.22 124.69 24.52 173.22 34.14.5.09.84.57.76 1.07l-9 55.59c-.03.17-.19.28-.35.25-.16 0-.27-.15-.25-.32zM372.08 234.2c1.52 1.96 2.49 4.21 3.31 6.52.79 2.2 1.46 4.76 1.88 7.05.63 3.07 1.04 6.51 1.22 9.65l.17 2.43.04 2.43c.11 2.74-.05 6.95-.18 9.72-.02 1.34-.26 3.5-.37 4.85-.56 7.11-1.8 14.64-3.11 21.65-.25 1.61-2.2 10.11-2.57 11.88l-.03-.34 63.54 137.13-1.79-.36 46.73-43.38.03 2.07c-22.83-19.59-54.58-46.6-76.84-66.12-.35-.24-.43-.85-.53-1.22-.43-2.47-.38-4.99-.39-7.47.67-28.14 3.62-56.15 6.24-84.15 1.05-10.16 2.08-20.33 3.25-30.48.01-.08.09-.15.17-.14.08.01.14.08.14.16l-2.21 30.57c-1.78 25.45-3.73 50.92-4.6 76.41-.09 3.8-.17 7.6.01 11.38.07 1.16.12 2.3.41 3.41l-.45-.68c22.4 19.09 54.14 46.64 76.63 66.23.63.53.65 1.52.03 2.07-.01.01-47.09 43-47.09 43.01-.46.42-1.17.39-1.59-.07-.32-.5-62.65-137.62-62.67-138.27.75-3.31 2.6-10.96 3.12-14.19.92-4.42 1.73-9.86 2.35-14.33.33-2.73.58-5.68.86-8.43.1-2.24.37-6.23.34-8.46 0-1.19-.02-3.65-.02-4.84-.31-6.42-.96-12.91-3.07-19.03-.77-2.25-1.74-4.54-3.19-6.43-.06-.07-.06-.18.01-.23.07-.08.17-.06.22 0zM209.74 216.05c1.43 36.34 2.7 72.75 6.27 108.94.65 5.04 1.03 10.2 2.64 15.03.13.33.1.69-.07.98-6.36 10.66-22.59 37.88-28.71 48.2l-9.59 16.05c-.3.49-.82.77-1.36.76-10.03.03-21.28-.02-31.32-.11l-10.44-.1c-.4 0-.77-.17-1.01-.45-8.75-9.9-19.63-22.02-28.19-31.99-12.41-14.21-12.52-14.75.86-.78 9.1 9.45 20.35 21.29 29.36 30.92l-1.01-.45 10.44-.1c10.03-.09 21.29-.14 31.32-.11l-1.36.76 9.78-15.94c6.24-10.09 22.97-37.34 29.39-47.79l-.07.98c-1.67-5.05-1.99-10.42-2.61-15.66-2.38-25.92-3.1-51.94-3.9-77.95-.29-10.4-.53-20.8-.72-31.2 0-.09.07-.16.15-.16.08.02.15.09.15.17zM492.42 224.38c.06 8.42-.15 17.64-.5 26.08-.09 2.17-.07 4.35-.08 6.52-.03 4.38-.93 8.64-2.19 12.84-.66 2.11-1.42 4.21-2.52 6.28-.13.26-.54.22-.61-.06-.66-2.24-.98-4.46-1.2-6.66-.38-4.37-.41-8.72.45-13.02.81-3.7 1.7-9.05 2.32-12.83 1.12-6.22 2.38-13.07 3.71-19.22.04-.17.2-.27.37-.24.15.05.25.17.25.31z"
		class="st1"/>
	<path
		d="M222.38 253.18a73.3 73.3 0 0 1-7.76-5.37c-1.2-.95-2.82-1.54-3.54-2.99-.85-1.63-1.24-3.24-1.02-5.27.03-.24.23-.41.46-.41 2.03-.01 3.6.54 5.14 1.55 1.38.86 1.8 2.53 2.62 3.82 1.69 2.64 3.21 5.4 4.56 8.26.13.27-.21.57-.46.41zM234.05 239.53c-4.68-4.24-9.6-9.07-14.01-13.61-2.26-2.32-4.93-4.31-6.65-7.1-1.83-2.86-3.33-5.81-4.04-9.25-.06-.26.23-.5.48-.39 1.71.69 3.16 1.59 4.53 2.56 2.67 1.94 5.09 4.14 6.85 6.94 1.46 2.43 3.76 5.77 5.4 8.13 2.62 3.95 5.49 8.29 7.92 12.34.18.28-.23.63-.48.38zM248.01 230.97c-3.04-3.46-6.23-7.43-9.12-11.04-1.7-2.25-4.11-5.36-5.95-7.45-2.08-2.47-3.38-5.38-4.37-8.46-.48-1.57-.87-3.19-.98-5-.02-.27.29-.47.52-.33 3.02 1.67 5.31 3.94 7.44 6.49 2.08 2.44 3.11 5.52 4.58 8.32 1.12 2.09 3.29 6.35 4.32 8.48 1.38 2.87 2.77 5.73 4.06 8.65.17.31-.28.61-.5.34zM265.08 223.36c-2.48-3.14-5.05-6.73-7.37-10.01-1.36-2.04-3.27-4.85-4.78-6.75-1.69-2.25-2.57-4.88-3.13-7.64-.26-1.41-.43-2.88-.3-4.5.02-.26.32-.42.54-.29 2.66 1.51 4.59 3.56 6.33 5.91 1.7 2.21 2.29 4.99 3.35 7.51.81 1.89 2.35 5.74 3.08 7.66.97 2.59 1.94 5.17 2.81 7.81.13.32-.33.58-.53.3zM282.21 218.74c-2.14-3.14-4.33-6.71-6.3-9.97-1.14-2.02-2.76-4.82-4.05-6.71-1.45-2.24-2.06-4.81-2.34-7.47-.12-1.36-.14-2.77.14-4.31.04-.25.35-.39.56-.25 2.47 1.58 4.18 3.64 5.67 6 1.46 2.21 1.77 4.9 2.57 7.36.61 1.85 1.76 5.61 2.29 7.49.7 2.52 1.41 5.04 2.01 7.61.1.32-.37.53-.55.25zM299.43 216.16c-1.89-3.37-3.78-7.19-5.48-10.67-.97-2.15-2.36-5.13-3.5-7.16-1.27-2.4-1.66-5.05-1.73-7.77-.01-1.39.08-2.81.49-4.35a.37.37 0 0 1 .58-.2c2.34 1.83 3.88 4.08 5.18 6.59 1.28 2.37 1.37 5.12 1.97 7.68.46 1.93 1.3 5.84 1.68 7.78.49 2.62 1 5.23 1.39 7.88.06.35-.42.52-.58.22zM318.83 215.95c.63-3.83 1.54-8.01 2.38-11.82.58-2.3 1.36-5.51 1.74-7.82.51-2.68 1.86-5.01 3.5-7.19.86-1.1 1.82-2.16 3.1-3.11.2-.16.52-.04.58.21.68 2.91.48 5.63-.07 8.42-.48 2.66-2.13 4.88-3.26 7.28-.85 1.81-2.63 5.41-3.55 7.17-1.25 2.37-2.49 4.74-3.84 7.07-.15.29-.64.13-.58-.21zM335.84 218.47c1.1-3.72 2.52-7.76 3.84-11.43.87-2.21 2.03-5.3 2.7-7.55.84-2.6 2.47-4.75 4.37-6.7.99-.98 2.08-1.92 3.46-2.71.22-.13.52.02.55.28.32 2.97-.22 5.65-1.12 8.35-.81 2.58-2.72 4.58-4.14 6.82-1.06 1.69-3.28 5.04-4.42 6.68-1.53 2.2-3.06 4.4-4.69 6.54-.2.27-.66.05-.55-.28zM354.65 223.65c1.45-3.87 3.24-8.06 4.89-11.87 1.07-2.29 2.53-5.49 3.4-7.83 1.08-2.69 2.91-4.9 5.02-6.89 1.09-1 2.27-1.95 3.75-2.72.23-.13.53.05.53.31.06 3.14-.73 5.94-1.87 8.72-1.04 2.68-3.15 4.72-4.79 7.02-1.22 1.73-3.77 5.18-5.06 6.86-1.75 2.25-3.49 4.51-5.33 6.71-.22.27-.67.01-.54-.31zM370.08 230.62c3.05-5.68 6.62-11.76 10.03-17.25 1.74-2.81 3.06-5.94 5.39-8.35 2.37-2.52 4.9-4.76 8.12-6.34.24-.12.54.1.5.37-.27 1.86-.81 3.51-1.44 5.1-1.28 3.12-2.86 6.06-5.18 8.5-2.04 2.06-4.77 5.17-6.69 7.39-3.25 3.59-6.84 7.52-10.23 10.95-.24.24-.68-.06-.5-.37zM384.97 240.94c3.76-5.75 8.09-11.87 12.19-17.41 2.1-2.83 3.79-6.02 6.44-8.4 2.7-2.49 5.53-4.69 9.01-6.19.25-.11.54.14.47.4-.48 1.91-1.22 3.6-2.04 5.22-1.66 3.18-3.6 6.15-6.25 8.57-2.32 2.04-5.46 5.13-7.67 7.34-3.72 3.56-7.83 7.47-11.68 10.86-.25.25-.67-.09-.47-.39zM395.88 252.86c1.81-2.68 3.76-5.23 5.88-7.64 1.03-1.18 1.72-2.79 3.23-3.46 1.69-.8 3.35-1.14 5.39-.85.23.04.4.24.39.48-.1 2.06-.76 3.63-1.86 5.13-.95 1.36-2.66 1.73-4.02 2.51-1.37.8-2.77 1.56-4.21 2.27-1.45.7-2.89 1.42-4.41 2.04-.28.12-.57-.23-.39-.48z"
		class="st1"/>
	<path
		d="M142.93 219.72c-7.37.96-4.45 14-3.14 18.89.65 2.37 1.38 4.72 2.17 7.05l-1.78-1.24c8.12-.9 18.14-1.78 26.21-2.69 8.72-1.15 17.47-1.81 26.28-1.61 5.87.09 11.75.35 17.67 1.18.17.02.29.18.27.36a.31.31 0 0 1-.23.26c-5.76 1.59-11.56 2.61-17.37 3.45-8.71 1.34-17.47 1.81-26.27 1.8-8.11.15-18.19.56-26.34.72-.82.08-1.59-.45-1.78-1.24-.62-2.46-1.19-4.94-1.61-7.45-.99-5.69-2.64-19.98 5.97-20.1.42.05.35.65-.05.62z"
		class="st1"/>
	<path
		d="M142.67 274.1a56.25 56.25 0 0 1-5.18-13.58c-.41-1.81-1.11-3.62-1.2-5.49-.04-2.6.75-5.27 2.26-7.4.34-.36 1.62-2.29 2.05-1.4 1.14 2.78 1.94 5.61 2.11 8.59.05 1.12-.17 2.24-.25 3.36-.16 1.72-.03 3.43.03 5.16.12 3.53.42 7.02.77 10.56.04.33-.44.5-.59.2zM209.53 137.83c.05.03.11-.01.12.01.01 0 .01-.01 0 .02-.02.04-.03.08-.06.12-.46 2-.12 4.1-.01 6.14.31 3.24.82 6.82 1.3 10.06.89 5.58 1.67 11.18 2.94 16.7.94 4.46 1.05 9 .84 13.56-.13 2.3-.37 4.62-.93 6.99-.06.28-.48.35-.61.09-1.18-2.12-2.03-4.3-2.77-6.49-1.43-4.37-2.46-8.83-2.58-13.43-.06-5.72-.46-11.42-.46-17.14.05-2.93-.07-15.85 2.12-17.2.52-.2.67.6.1.57zM276.52 123.4c.33 10.51.04 23.32.73 33.85.5 6.22-.89 12.36-1.28 18.51.02.23.02.44.08.66.02.02.05.05.09.08l.2.16c.3.3-.1.51-.39.54-2.12-.14-3.31-4.65-3.8-6.35-1.12-4.55-1.53-9.16-.99-13.77.6-4.53 1.06-9.04 1.59-13.56.87-6.53 1.91-13.74 3.16-20.17.03-.17.2-.28.36-.25.15.03.25.16.25.3zM349.36 123.38c.69 8.7 1.14 18.25 1.34 27 .05 2.25.21 4.51.33 6.76.23 4.55-.43 9.04-1.53 13.46-.14.69-2.38 8.34-3.11 6.49-1.51-6.76-2.28-13.41-1.45-20.2.59-3.87 1.12-9.45 1.49-13.4.69-6.5 1.47-13.67 2.32-20.13.02-.17.18-.29.35-.27.14.03.25.15.26.29zM416.15 136.5c.06 8.75-.14 18.32-.48 27.08-.09 2.25-.06 4.52-.07 6.78-.02 4.55-.92 8.98-2.18 13.35-.66 2.2-1.42 4.38-2.52 6.54-.12.26-.54.23-.61-.06-.66-2.33-.98-4.62-1.2-6.9-.39-4.53-.41-9.06.45-13.52.81-3.84 1.7-9.41 2.31-13.34 1.12-6.47 2.38-13.59 3.7-19.99.03-.17.2-.28.37-.24.13.03.23.16.23.3zM206.73 274.16c-34.04 4.12-102.55 12.25-136.59 16.24l1.01-1.32 3.93 25.01-1.51-1.12c22.63-3.53 45.54-7.11 68.24-10.22 15.74-2.2 35.55-4.78 51.32-6.74 22.49-2.77 23.39-2.68.19 1.31-15.68 2.68-35.36 5.93-51.08 8.37-22.63 3.58-45.6 6.76-68.28 9.92-.73.11-1.41-.39-1.51-1.12l-3.58-25.07c-.1-.65.36-1.25 1.01-1.32 33.82-3.26 103.93-11.48 136.85-13.94zM211.07 296.92c-21.41 6.93-48.2 15.18-69.75 22.05-9.14 2.92-18.86 5.55-28.18 7.87-4.74 1.18-9.49 2.3-14.29 3.26-.08.02-.17-.04-.18-.12-.01-.07.03-.15.09-.17 6.82-2.7 13.74-5.07 20.7-7.38 10.72-3.63 24.11-7.27 35.11-10.25 16.55-4.62 40.04-11.16 56.42-15.55.08-.02.17.03.19.11a.17.17 0 0 1-.11.18z"
		class="st1"/>
	<path
		d="m98.86 359.22 38.49 15.35-.47.06 36.71-28.76 36.76-28.7 1.05 1.91c-33.09 12.4-79.28 30.02-112.13 41.56-.71.27-1.5-.09-1.75-.81-.16-7.55.31-22.33.39-29.89l.42.76c-3.59-2.35-8.83-5.73-12.35-8.09-3.05-2.02-9.25-6.14-12.3-8.18-.07-.05-.09-.14-.04-.21a.16.16 0 0 1 .21-.05c3.2 1.86 9.56 5.59 12.74 7.47 3.64 2.13 9.01 5.34 12.69 7.56.26.16.41.44.42.72.17 7.35.38 22.11.47 29.46l-1.83-1.28c32.34-12.43 79.28-29.16 112.32-41.08.57-.21 1.2.09 1.41.66.17.46 0 .97-.37 1.25l-37.1 28.26-37.14 28.21a.45.45 0 0 1-.47.06l-38.24-15.95c-.08-.03-.12-.12-.08-.2.03-.08.12-.12.19-.09z"
		class="st1"/>
	<path
		d="M216.55 335.78c-21.76 19.63-46.57 41.81-68.42 61.27-3.3 2.87-6.64 5.69-10.01 8.48-.61.54-1.56.48-2.08-.15-.23-.28-.34-.61-.33-.94.04-2.45.11-4.9.19-7.36.14-4.91.35-9.81.62-14.71.14-2.45.29-4.9.49-7.36.03-.19.29-.19.31 0 .57 7.35.88 14.7 1.11 22.07.08 2.45.15 4.9.19 7.36l-2.41-1.1c11.19-10.25 28.19-24.09 39.92-34.07 11.65-9.86 28.34-23.82 40.21-33.72.07-.05.16-.05.22.02.06.06.05.16-.01.21z"
		class="st1"/>
	<path
		d="M137.17 404.44c15.6 11.32 32.57 23.86 48.06 35.44l-1.65.4c20.6-45.01 42.09-90.69 63.59-135.27v1.03c-1.2-2.91-2.03-5.77-2.8-8.77-4.01-16.14-4.57-33-3.33-49.51.27-4.28.92-9.21 1.44-13.45-.29 4.28-.67 9.16-.76 13.49-.52 17.84.66 36.07 6.12 53.15.48 1.38.98 2.82 1.55 4.08.15.34.14.72 0 1.03l-7.83 16.96a7675.482 7675.482 0 0 1-39.78 84.52c-4 8.37-12.15 25.32-16.21 33.67-.25.55-.91.79-1.45.52-15.31-12-31.91-25.08-46.95-37.29z"
		class="st1"/>
	<path
		d="M179.08 404.41c1.35 5.78 2.72 12.14 3.88 17.99 1.03 4.49 2.02 9 1.97 13.64.02 1.55-.01 3.1-.21 4.68a.16.16 0 0 1-.18.14.176.176 0 0 1-.13-.09c-.67-1.45-1.18-2.92-1.62-4.4a54.35 54.35 0 0 1-1.16-4.47c-.69-3-.77-6.08-1.1-9.12l-.5-4.57c-.44-4.43-.91-9.33-1.25-13.75-.01-.09.06-.16.14-.17.08 0 .15.05.16.12zM434.96 404.28c15.64-.46 31.27-.81 46.91-1.08v2.46c-5.86.39-11.72.42-17.59.4-5.46-.06-12.17-.23-17.59-.55-3.91-.21-7.82-.49-11.73-.93v-.3zm0 0c11.58-1.22 23.54-1.52 35.18-1.47 3.94.03 7.89.13 11.83.4 1.57.14 1.49 2.44-.1 2.46-15.64-.26-31.28-.62-46.91-1.08v-.31z"
		class="st1"/>
	<path
		d="M405.31 338.23c10.32 21.8 21.24 44.35 31.18 66.21.22 10.71-.09 21.69-.62 32.39-.2 3.6-.42 7.2-.75 10.8-.01.09-.08.15-.17.14a.16.16 0 0 1-.14-.14c-.33-3.6-.56-7.2-.75-10.8-.53-10.71-.84-21.68-.62-32.39-6.04-13.39-14.51-33.67-21.31-49.38l-7.09-16.7c-.03-.08 0-.17.08-.2.07-.04.16 0 .19.07zM405.05 321.08c20.09 14.45 43.11 30.42 63.62 44.78l21.44 15.15c.34.24.5.63.45 1.02l-2.46 22.56c-.08 1.04-1.46 1.52-2.16.76-27.32-26.69-54.41-56.81-80.89-84.27zm.24.2c27.07 27.25 56.22 54.33 82.46 82.26l-2.18.74 2.82-22.51.45 1.02-20.71-15.21c-20.31-15.04-42.34-31.52-62.84-46.3z"
		class="st1"/>
	<path
		d="M405.22 321.04c27.37 9.24 60.7 20.68 88.02 30.05 9.8 3.29 19.56 6.66 29.23 10.32a1.483 1.483 0 0 1 .25 2.7c-2.74 1.54-5.46 3.1-8.22 4.61-2.75 1.53-5.5 3.05-8.26 4.54-5.53 3-11.07 5.96-16.69 8.78-.17.07-.31-.15-.16-.27 5.2-3.54 10.49-6.94 15.8-10.31 5.3-3.37 10.65-6.67 16.02-9.94l.26 2.69c-16.99-5.71-41.16-15.03-58.24-21.26-16.92-6.22-41.01-15.23-58.11-21.63a.155.155 0 0 1-.09-.2c.03-.07.11-.11.19-.08zM410.73 296.8c48.86 15.02 97.71 29.1 146.46 43.89l-1.28 1.93-26.96-31.4.98.52c-19.73-2.06-39.11-4.44-58.79-7.12-18.89-2.6-41.45-5.61-60.41-7.82zm-.3-.06c28.47 3.14 61.02 5.61 89.48 8.6 10.15 1.02 20.29 2.23 30.36 3.42.4.04.75.24.98.52l26.5 31.79c.44.51.37 1.28-.14 1.71a1.2 1.2 0 0 1-1.13.22c-48.76-15.26-97.41-31.23-146.05-46.26z"
		class="st1"/>
	<path
		d="M521.89 362.68c5.39-3.76 11.36-7.8 16.88-11.41 4.21-2.92 8.39-5.77 13.15-7.74 1.56-.69 3.16-1.33 4.84-1.82.08-.02.17.02.2.11.02.06 0 .12-.04.16-1.23 1.25-2.54 2.36-3.88 3.42a65.623 65.623 0 0 1-4.12 3.01c-3.98 2.66-9.1 4.97-13.34 7.42-4.35 2.33-9.15 4.88-13.52 7.12-.08.04-.17.01-.21-.07-.04-.08-.02-.16.04-.2zM410.43 273.99c32.97.64 69.6.59 102.8 1.08.21 0 .41.07.57.19l28.94 20.49c1.06.75.36 2.5-.94 2.25-43.05-6.61-88.54-16.25-131.37-24.01zm.3.03c43.23 7.23 88.51 13.22 131.48 21.52l-.94 2.25-28.65-20.89.57.19c-33.3-.87-69.18-2.38-102.46-3.07z"
		class="st1"/>
	<path
		d="M529.99 310.14c1.17-1.85 2.55-3.83 3.81-5.63.8-1.08 1.9-2.58 2.6-3.7 1.38-1.93 3.15-3.26 5.49-4.15.13-.05.26.07.23.2-.35 1.69-1.09 3.03-1.93 4.29-.83 1.28-2.12 2.13-3.2 3.17-.81.78-2.48 2.32-3.32 3.06-1.13 1-2.26 2-3.44 2.96-.14.12-.34-.05-.24-.2z"
		class="st1"/>
	<path
		d="M521.19 1103.47c-.83-39.7-31.22-71.43-64.72-88.91-74.85-39.03-176.59-32.59-244.64 17.77-13.03 10.06-24.38 22.49-32.23 37-5.53 10.6-9.02 22.02-10.11 34.14a.566.566 0 0 1-1.13 0c-2.63-30.52 14.52-59.46 37.12-78.86 75.7-66.49 236.37-58.41 298.28 23.73 11.81 15.76 19.01 35.35 18.58 55.13a.576.576 0 0 1-1.15 0z"
		class="st2"/>
	<path
		d="M535.45 985.2c-.13-8.28-.27-16.68-.32-25.08 4 2.44-191.07-36.67-190.18-35.97 3.91-.45-183.29 39.07-182.47 38.98l2.46-3.02.12 24.7c.01 1.7-1.32 3.1-3 3.19-.04 0-122.58 6.76-122.62 6.76-2.16.13-3.99-1.62-3.98-3.78l-.1-21.17a3.873 3.873 0 0 1 2.97-3.78c77.61-17.91 230.61-56.16 308.2-73.17 81.72 17.06 174.68 37.7 256.57 56.16 13.29 3.06 50.97 11.57 64.03 14.57l21.33 4.92c1.89.38 3.22 2.08 3.18 3.94 0 .09-.39 28.23-.39 28.32-.02 2.12-1.92 3.79-4.02 3.53-12.83-1.5-25.63-3.11-38.39-4.68-23.67-2.9-88.82-11.26-113.39-14.42zm.84-.76c43.29 3.53 108.92 8.79 151.68 12.63l-4.02 3.62-.39-28.23 3.18 3.94c-23.72-4.75-61.74-12.63-85.77-17.55-82.38-17.04-175.21-36.75-256.82-54.99-62.08 15.67-232.07 52.69-304.02 69.75l3-3.79-.1 21.18-3.98-3.78 122.64-5.59-3.04 3.19.12-24.73a3.047 3.047 0 0 1 2.46-2.98c.8 0 183.74-37.18 184.49-36.88.8.88 190.99 38.06 190.89 39.89-.05 8.07-.19 16.14-.32 24.32z"
		class="st2"/>
	<path
		d="m646.92 963.71 14.25-102.64 1.4 1.97c-88.54-15.78-228.51-40.92-318.1-57.15-81.74 19.71-189.46 42.19-278.58 59.26l-18.78 3.54 3.09-4.22c1.68 23.38 3.88 52.43 5.24 75.96.4 6.28 1.1 19.06 1.43 25.35a.567.567 0 0 1-1.13.11c-.94-6.28-2.71-18.86-3.58-25.14-1.63-12.55-5.12-37.77-6.64-50.33-1.1-8.39-2.09-16.79-3.13-25.18a3.826 3.826 0 0 1 2.89-4.18l.2-.05 18.6-4.4c91.21-21.65 188.15-41.48 280.37-59.82 90.3 16.97 229.45 45.13 318.76 62.82.93.16 1.55 1.05 1.4 1.97l-16.57 102.29a.566.566 0 0 1-1.12-.16zM460.86 1018.21c2.8 3.6 4.59 7.75 6.1 11.99 1.46 4.05 2.69 8.75 3.47 12.98 1.16 5.66 1.91 11.98 2.25 17.76l.31 4.47.07 4.47c.21 5.03-.09 12.78-.33 17.89-.04 2.46-.49 6.43-.69 8.92-1.03 13.08-3.32 26.93-5.73 39.83-.47 2.97-4.05 18.61-4.73 21.86l-.06-.63 116.92 252.35-3.29-.66 86-79.84.06 3.81c-42.01-36.05-100.44-85.76-141.4-121.68-.64-.45-.78-1.56-.97-2.25-.8-4.55-.7-9.18-.72-13.75 1.23-51.78 6.66-103.32 11.48-154.84 1.93-18.71 3.82-37.41 5.98-56.09a.28.28 0 0 1 .31-.25c.15.02.26.15.25.3l-4.06 56.25c-3.27 46.84-6.87 93.7-8.46 140.61-.17 6.99-.31 13.98.01 20.94.14 2.13.22 4.24.75 6.28l-.83-1.26c41.21 35.12 99.63 85.83 141.01 121.87 1.16.97 1.19 2.8.06 3.81l-86.66 79.14c-.84.77-2.15.71-2.92-.13-.59-.92-115.28-253.24-115.33-254.44 1.37-6.09 4.78-20.16 5.75-26.11 1.69-8.13 3.19-18.15 4.33-26.38.6-5.03 1.06-10.46 1.58-15.51.18-4.13.68-11.46.63-15.57.01-2.19-.04-6.71-.04-8.91-.57-11.81-1.76-23.75-5.65-35.01-1.43-4.15-3.21-8.36-5.86-11.84a.287.287 0 0 1 .03-.43c.11-.09.28-.07.38.05zM162.14 984.81c2.63 66.87 4.96 133.86 11.55 200.47 1.2 9.28 1.9 18.76 4.86 27.66.23.6.19 1.28-.13 1.8-11.71 19.62-41.58 69.7-52.83 88.69l-17.65 29.54c-.54.91-1.51 1.41-2.5 1.41-18.47.06-39.17-.04-57.63-.21l-19.21-.18a2.45 2.45 0 0 1-1.86-.82c-16.11-18.21-36.12-40.52-51.88-58.87-22.84-26.15-23.04-27.15 1.58-1.44 16.74 17.39 37.45 39.17 54.03 56.9l-1.86-.82 19.21-.18c18.46-.17 39.17-.26 57.63-.21l-2.5 1.41 17.99-29.34c11.48-18.56 42.26-68.7 54.08-87.94l-.13 1.8c-3.07-9.28-3.66-19.18-4.79-28.82-4.38-47.7-5.7-95.59-7.18-143.44-.53-19.13-.98-38.27-1.32-57.4 0-.16.12-.29.28-.29.12.01.25.13.26.28zM682.31 1000.15c.11 15.5-.27 32.46-.91 47.99-.16 3.99-.12 8-.14 12.01-.05 8.06-1.71 15.91-4.03 23.63-1.21 3.88-2.61 7.75-4.64 11.55-.23.47-1 .4-1.13-.12-1.21-4.13-1.8-8.2-2.21-12.25-.71-8.03-.75-16.05.83-23.96 1.48-6.8 3.13-16.65 4.26-23.61 2.07-11.45 4.39-24.04 6.83-35.37.07-.31.37-.5.68-.44.28.07.46.31.46.57z"
		class="st2"/>
	<path
		d="M185.38 1053.13c-4.99-3-9.76-6.29-14.28-9.88-2.21-1.75-5.19-2.83-6.51-5.51-1.57-2.99-2.28-5.97-1.88-9.69a.87.87 0 0 1 .84-.76c3.74-.03 6.63.99 9.45 2.85 2.54 1.58 3.31 4.66 4.82 7.03 3.12 4.86 5.91 9.94 8.39 15.2.26.5-.35 1.06-.83.76zM206.86 1028.03c-8.61-7.8-17.67-16.68-25.79-25.04-4.15-4.27-9.06-7.93-12.24-13.06-3.36-5.27-6.13-10.68-7.43-17.03-.11-.48.42-.92.88-.72 3.15 1.26 5.82 2.92 8.34 4.7 4.91 3.58 9.37 7.62 12.6 12.76 2.68 4.48 6.91 10.63 9.94 14.96 4.82 7.26 10.09 15.26 14.57 22.71.34.52-.4 1.16-.87.72zM232.55 1012.26c-5.59-6.37-11.47-13.67-16.78-20.32-3.14-4.14-7.56-9.86-10.94-13.7-3.82-4.54-6.22-9.91-8.04-15.56-.88-2.89-1.6-5.88-1.8-9.2-.04-.49.53-.86.96-.61 5.55 3.07 9.78 7.25 13.69 11.95 3.83 4.48 5.72 10.16 8.43 15.31 2.05 3.85 6.05 11.69 7.96 15.61 2.54 5.27 5.1 10.54 7.48 15.92.27.56-.55 1.1-.96.6zM263.97 998.26c-4.57-5.78-9.3-12.38-13.57-18.42-2.5-3.75-6.02-8.93-8.79-12.42-3.11-4.14-4.73-8.98-5.75-14.05-.48-2.6-.79-5.29-.55-8.28.03-.48.58-.78 1-.54 4.9 2.78 8.45 6.55 11.66 10.87 3.13 4.07 4.21 9.19 6.17 13.83 1.49 3.48 4.33 10.56 5.67 14.1 1.78 4.76 3.57 9.51 5.17 14.37.19.59-.64 1.05-1.01.54zM295.48 989.76c-3.94-5.77-7.96-12.34-11.59-18.34-2.1-3.72-5.07-8.86-7.46-12.35-2.67-4.13-3.79-8.85-4.3-13.74-.22-2.51-.26-5.1.26-7.93.08-.47.64-.72 1.04-.46 4.55 2.91 7.69 6.7 10.44 11.03 2.69 4.06 3.26 9.01 4.73 13.55 1.13 3.41 3.24 10.32 4.22 13.78 1.29 4.64 2.59 9.28 3.7 14.01.15.58-.71.97-1.04.45zM327.17 985c-3.47-6.2-6.95-13.22-10.08-19.63-1.79-3.96-4.34-9.43-6.44-13.18-2.33-4.42-3.06-9.3-3.18-14.29-.02-2.56.15-5.18.9-8 .11-.46.7-.66 1.07-.37 4.31 3.37 7.14 7.5 9.53 12.13 2.36 4.36 2.52 9.42 3.63 14.14.85 3.55 2.4 10.74 3.09 14.32.91 4.82 1.84 9.63 2.55 14.51.11.61-.78.93-1.07.37zM362.88 984.63c1.16-7.05 2.83-14.75 4.39-21.74 1.08-4.24 2.5-10.14 3.2-14.4.94-4.93 3.42-9.23 6.45-13.23 1.59-2.02 3.35-3.98 5.71-5.73.38-.29.96-.08 1.07.38 1.26 5.35.89 10.36-.13 15.5-.88 4.9-3.91 8.99-6 13.39-1.56 3.32-4.84 9.95-6.54 13.2-2.3 4.36-4.58 8.72-7.07 13.01-.31.54-1.2.23-1.08-.38zM394.17 989.27c2.03-6.85 4.65-14.29 7.06-21.04 1.59-4.07 3.74-9.75 4.97-13.89 1.55-4.78 4.54-8.74 8.04-12.34 1.83-1.81 3.82-3.54 6.37-4.98.41-.24.96.04 1.01.51.59 5.47-.41 10.4-2.06 15.37-1.49 4.76-5 8.43-7.62 12.55-1.96 3.11-6.04 9.28-8.13 12.29-2.82 4.04-5.63 8.09-8.63 12.04-.36.5-1.21.08-1.01-.51zM428.79 998.8c2.66-7.12 5.96-14.84 9-21.84 1.97-4.22 4.65-10.11 6.25-14.41 1.98-4.95 5.35-9.01 9.23-12.68 2.01-1.84 4.18-3.58 6.89-5.01.42-.23.98.09.98.57.11 5.78-1.34 10.93-3.43 16.05-1.92 4.94-5.8 8.68-8.82 12.91-2.25 3.19-6.93 9.53-9.31 12.63-3.22 4.15-6.41 8.3-9.8 12.34-.4.5-1.24.03-.99-.56zM457.17 1011.62c5.62-10.46 12.19-21.63 18.46-31.75 3.21-5.17 5.63-10.93 9.92-15.37 4.37-4.65 9.02-8.76 14.94-11.67.44-.23 1 .18.91.67-.5 3.41-1.49 6.46-2.65 9.39-2.35 5.74-5.26 11.15-9.54 15.65-3.75 3.79-8.78 9.52-12.31 13.6-5.98 6.6-12.58 13.83-18.82 20.14-.43.47-1.23-.1-.91-.66zM484.58 1030.62c6.91-10.58 14.88-21.85 22.42-32.03 3.86-5.21 6.98-11.07 11.86-15.46 4.96-4.59 10.17-8.64 16.57-11.38.46-.21 1 .25.86.74-.89 3.52-2.25 6.62-3.75 9.61-3.05 5.85-6.63 11.32-11.5 15.77-4.26 3.75-10.05 9.45-14.11 13.51-6.85 6.56-14.41 13.74-21.49 19.98-.46.43-1.23-.2-.86-.74zM504.66 1052.54c3.33-4.93 6.93-9.62 10.82-14.06 1.9-2.17 3.16-5.14 5.95-6.37 3.1-1.47 6.16-2.1 9.92-1.56.43.07.74.45.72.88-.19 3.79-1.39 6.67-3.43 9.43-1.75 2.5-4.9 3.18-7.39 4.62-2.52 1.48-5.1 2.87-7.75 4.18-2.67 1.3-5.32 2.61-8.11 3.75-.53.23-1.06-.41-.73-.87z"
		class="st2"/>
	<path
		d="M39.18 991.56c-13.57 1.76-8.2 25.76-5.78 34.75 1.19 4.36 2.54 8.68 4 12.98l-3.28-2.28c14.95-1.66 33.38-3.27 48.24-4.95 16.05-2.11 32.15-3.33 48.37-2.96 10.8.16 21.62.64 32.51 2.17.32.04.54.34.49.65-.03.24-.2.42-.42.48-10.6 2.92-21.27 4.8-31.96 6.36-16.03 2.46-32.16 3.33-48.34 3.32-14.93.27-33.47 1.03-48.47 1.33-1.52.15-2.93-.83-3.28-2.28-1.13-4.53-2.19-9.08-2.97-13.7-1.82-10.46-4.85-36.77 10.99-36.99.78.08.64 1.18-.1 1.12z"
		class="st2"/>
	<path
		d="M38.7 1091.63c-4.23-7.83-7.45-16.32-9.54-24.99-.76-3.33-2.05-6.66-2.21-10.1-.07-4.79 1.38-9.69 4.16-13.61.63-.66 2.98-4.22 3.77-2.58 2.11 5.12 3.56 10.32 3.88 15.81.09 2.06-.31 4.12-.46 6.18-.3 3.16-.05 6.31.06 9.5.21 6.5.76 12.91 1.42 19.43.09.61-.8.92-1.08.36zM161.75 840.87c.1.05.2-.02.23.02.02 0 .02-.02 0 .04-.03.08-.06.15-.1.22-.85 3.69-.22 7.54-.01 11.29.58 5.96 1.51 12.55 2.39 18.5 1.63 10.27 3.07 20.57 5.4 30.73 1.73 8.22 1.93 16.56 1.54 24.95-.24 4.23-.67 8.5-1.72 12.86-.11.51-.88.65-1.12.16-2.17-3.91-3.73-7.91-5.1-11.95-2.63-8.04-4.54-16.25-4.75-24.71-.11-10.53-.85-21.01-.84-31.54.09-5.39-.13-29.17 3.9-31.65.95-.34 1.22 1.14.18 1.08zM285.02 814.32c.61 19.34.08 42.91 1.35 62.28.92 11.45-1.64 22.74-2.36 34.07.04.42.03.81.15 1.21.04.03.09.09.16.15l.37.29c.54.55-.18.93-.73 1-3.89-.26-6.09-8.56-6.99-11.68-2.06-8.36-2.81-16.85-1.83-25.34 1.1-8.33 1.95-16.63 2.92-24.96 1.6-12.01 3.52-25.28 5.82-37.12a.57.57 0 0 1 .67-.45c.28.05.46.29.47.55zM419.06 814.29c1.28 16.01 2.09 33.58 2.46 49.69.1 4.14.39 8.29.61 12.45.43 8.37-.8 16.63-2.81 24.78-.26 1.28-4.38 15.34-5.73 11.95-2.78-12.44-4.2-24.68-2.67-37.18 1.08-7.12 2.06-17.39 2.73-24.66 1.28-11.97 2.7-25.16 4.28-37.05.04-.31.33-.53.64-.49.26.02.47.25.49.51zM541.95 838.43c.11 16.09-.26 33.7-.89 49.84-.16 4.14-.12 8.31-.14 12.47-.04 8.37-1.7 16.53-4.02 24.57-1.21 4.04-2.61 8.07-4.63 12.03-.23.48-1 .41-1.13-.11-1.22-4.28-1.81-8.5-2.21-12.7-.71-8.34-.76-16.66.82-24.88 1.48-7.07 3.12-17.31 4.25-24.55 2.06-11.9 4.38-25 6.82-36.78a.56.56 0 0 1 .67-.44c.28.05.46.29.46.55zM156.59 1091.74c-62.64 7.57-188.7 22.55-251.35 29.89l1.86-2.42 7.23 46.03-2.78-2.06c41.65-6.5 83.8-13.09 125.57-18.82 28.96-4.04 65.41-8.79 94.43-12.4 41.38-5.1 43.05-4.93.35 2.4-28.85 4.92-65.07 10.9-93.99 15.4-41.65 6.58-83.91 12.45-125.66 18.26a2.43 2.43 0 0 1-2.78-2.06l-6.59-46.12c-.19-1.19.67-2.3 1.86-2.42 62.26-6.03 191.27-21.15 251.85-25.68zM164.58 1133.62c-39.41 12.76-88.7 27.94-128.35 40.58-16.82 5.37-34.71 10.21-51.86 14.48-8.72 2.17-17.46 4.23-26.3 5.99a.283.283 0 0 1-.16-.54c12.56-4.97 25.29-9.32 38.09-13.57 19.72-6.68 44.36-13.37 64.6-18.85 30.46-8.5 73.67-20.53 103.81-28.62.15-.04.31.05.35.2.04.13-.04.28-.18.33z"
		class="st2"/>
	<path
		d="m-41.9 1248.27 70.83 28.24-.87.12 67.56-52.92 67.64-52.81 1.94 3.51c-60.9 22.82-145.89 55.25-206.34 76.47-1.3.5-2.76-.17-3.23-1.48-.3-13.89.57-41.09.72-55.01l.77 1.39c-6.6-4.32-16.24-10.54-22.73-14.89-5.62-3.71-17.03-11.29-22.63-15.06-.13-.09-.17-.26-.08-.39.08-.13.25-.16.38-.09 5.9 3.42 17.6 10.28 23.45 13.74 6.69 3.92 16.58 9.83 23.35 13.9.49.29.76.8.77 1.33.31 13.52.71 40.68.86 54.2l-3.37-2.35c59.5-22.88 145.88-53.65 206.7-75.59a2.026 2.026 0 0 1 1.91 3.52l-68.26 52.01-68.34 51.91c-.26.2-.59.24-.87.12l-70.37-29.35a.287.287 0 0 1-.15-.37c.05-.14.21-.2.36-.15z"
		class="st2"/>
	<path
		d="M174.66 1205.13c-40.05 36.12-85.7 76.93-125.9 112.75a979.082 979.082 0 0 1-18.42 15.61c-1.12 1-2.86.88-3.82-.28-.42-.51-.62-1.13-.61-1.74.08-4.51.2-9.02.35-13.53.26-9.03.64-18.05 1.14-27.07.25-4.51.54-9.02.9-13.53.05-.34.53-.35.57 0 1.05 13.52 1.62 27.06 2.04 40.6.15 4.51.27 9.02.35 13.53l-4.43-2.02c20.59-18.87 51.88-44.33 73.45-62.69 21.43-18.14 52.15-43.84 74-62.06.12-.1.3-.08.4.04.1.12.09.29-.02.39z"
		class="st2"/>
	<path
		d="M28.59 1331.47c28.71 20.82 59.93 43.9 88.43 65.22l-3.03.74c37.9-82.82 77.45-166.88 117.01-248.92l-.01 1.9c-2.2-5.35-3.74-10.61-5.16-16.14-7.38-29.69-8.41-60.72-6.12-91.11.5-7.87 1.69-16.94 2.64-24.76-.53 7.88-1.23 16.86-1.4 24.82-.96 32.82 1.22 66.38 11.26 97.8.88 2.54 1.81 5.18 2.86 7.5.28.62.26 1.32-.01 1.9l-14.41 31.22c-23.95 51.69-48.65 104.22-73.21 155.54-7.36 15.4-22.36 46.6-29.83 61.96a1.982 1.982 0 0 1-2.67.96c-28.14-22.08-58.68-46.14-86.35-68.63z"
		class="st2"/>
	<path
		d="M105.71 1331.43c2.48 10.64 5.01 22.35 7.14 33.1 1.9 8.27 3.72 16.55 3.62 25.1.04 2.84-.02 5.71-.39 8.61a.3.3 0 0 1-.33.26.291.291 0 0 1-.23-.17c-1.23-2.66-2.16-5.37-2.99-8.09-.84-2.72-1.53-5.46-2.13-8.22-1.26-5.51-1.41-11.19-2.03-16.79l-.92-8.41c-.81-8.16-1.67-17.16-2.31-25.3a.28.28 0 0 1 .26-.3c.16-.02.28.08.31.21zM576.57 1331.19c28.77-.84 57.55-1.5 86.32-1.98v4.54c-10.79.71-21.57.78-32.37.73-10.04-.11-22.4-.42-32.37-1-7.19-.39-14.39-.9-21.58-1.71v-.58zm0 0c21.31-2.25 43.33-2.79 64.74-2.7 7.25.06 14.51.24 21.77.73 2.88.25 2.74 4.49-.18 4.52-28.78-.48-57.55-1.15-86.32-1.98-.01 0-.01-.57-.01-.57z"
		class="st2"/>
	<path
		d="M522.01 1209.64c18.99 40.11 39.09 81.62 57.37 121.83.41 19.7-.17 39.91-1.14 59.61-.36 6.62-.78 13.25-1.39 19.87-.01.16-.15.27-.31.26a.28.28 0 0 1-.26-.26c-.61-6.62-1.03-13.25-1.39-19.87-.98-19.72-1.55-39.9-1.14-59.61-11.12-24.65-26.71-61.96-39.22-90.87l-13.04-30.73c-.06-.14.01-.31.15-.37.15-.05.31.01.37.14zM521.54 1178.08c36.97 26.59 79.34 55.97 117.08 82.41l39.46 27.87c.62.44.91 1.17.83 1.87l-4.54 41.51c-.15 1.91-2.69 2.79-3.98 1.4-50.29-49.1-100.13-104.52-148.85-155.06zm.43.37c49.81 50.14 103.45 99.98 151.74 151.38l-4.01 1.37 5.19-41.43.83 1.87-38.11-28c-37.38-27.66-77.92-58-115.64-85.19z"
		class="st2"/>
	<path
		d="M521.85 1178c50.37 17.01 111.69 38.05 161.96 55.3 18.03 6.05 36 12.26 53.79 18.98a2.73 2.73 0 0 1 .47 4.96c-5.04 2.83-10.05 5.71-15.12 8.49-5.05 2.81-10.11 5.61-15.2 8.36-10.17 5.53-20.38 10.96-30.72 16.16-.32.13-.57-.28-.29-.49 9.58-6.51 19.3-12.78 29.07-18.97 9.76-6.2 19.6-12.27 29.47-18.29l.47 4.96c-31.26-10.5-75.73-27.66-107.17-39.13-31.13-11.45-75.46-28.02-106.93-39.8a.282.282 0 0 1-.17-.36c.07-.14.22-.22.37-.17zM531.99 1133.4c89.91 27.63 179.81 53.55 269.51 80.76l-2.35 3.56-49.61-57.78 1.81.97c-36.3-3.79-71.98-8.16-108.18-13.11-34.79-4.79-76.3-10.33-111.18-14.4zm-.56-.11c52.38 5.77 112.28 10.32 164.66 15.82 18.67 1.88 37.33 4.11 55.87 6.29.73.08 1.37.44 1.81.97l48.76 58.49c.8.94.68 2.36-.27 3.15-.6.5-1.39.62-2.08.41-89.72-28.08-179.24-57.46-268.75-85.13z"
		class="st2"/>
	<path
		d="M736.54 1254.63c9.92-6.92 20.9-14.34 31.06-20.99 7.75-5.37 15.43-10.61 24.2-14.24 2.88-1.27 5.81-2.45 8.9-3.36.16-.05.32.04.36.2.03.11 0 .21-.07.29-2.25 2.3-4.67 4.34-7.14 6.29-2.46 1.96-5 3.79-7.59 5.54-7.33 4.89-16.75 9.14-24.55 13.66-8 4.29-16.84 8.99-24.89 13.1-.14.07-.31.01-.38-.13a.284.284 0 0 1 .1-.36zM531.43 1091.43c60.68 1.17 128.08 1.09 189.17 1.99.39.01.75.13 1.04.35l53.25 37.71c1.96 1.38.67 4.6-1.74 4.14-79.19-12.18-162.9-29.92-241.72-44.19zm.56.05c79.54 13.3 162.87 24.33 241.94 39.59l-1.74 4.14-52.73-38.44 1.04.35c-61.25-1.58-127.28-4.37-188.51-5.64z"
		class="st2"/>
	<path
		d="M751.44 1157.96c2.15-3.4 4.69-7.05 7.01-10.36 1.46-1.98 3.49-4.75 4.78-6.81 2.53-3.55 5.8-6.01 10.1-7.63.23-.09.48.14.43.38-.65 3.1-2.01 5.58-3.56 7.89-1.53 2.35-3.9 3.93-5.9 5.83a297.64 297.64 0 0 1-6.11 5.64c-2.08 1.84-4.16 3.68-6.32 5.45-.24.19-.6-.13-.43-.39z"
		class="st2"/>
	<path id="SVGID_x5F_1_x5F_" d="M912.93-192.01c0 146.81 119.01 265.82 265.82 265.82s265.82-119.01 265.82-265.82"
				class="st3"/>
	<text><textPath xlink:href="#SVGID_x5F_1_x5F_" startOffset="28.233%">
<tspan class="st2" style="font-family:&quot;CreattionDemo&quot;;font-size:59.5276px">Alameda de Cervera</tspan></textPath>
</text>
	<path id="SVGID_x5F_00000056403987467701750780000017344786898544732350_x5F_"
				d="M883.86 70.03c0 146.81 119.01 265.82 265.82 265.82S1415.5 216.84 1415.5 70.03" class="st3"/>
	<text><textPath xlink:href="#SVGID_x5F_00000056403987467701750780000017344786898544732350_x5F_" startOffset="28.233%">
<tspan class="st2" style="font-family:&quot;CASPERGHOSTRegular&quot;;font-size:45.3543px">Alameda de Cervera</tspan></textPath>
</text>
	<path
		d="M184.43 469.52c.28-.43 1.06-.57 2.2.16 3.13 2.01.76 6.65 1.28 6.99.31.2.88-.05 1.71-.35 2.57-.94 11.33-4.61 14.5-2.56 2.79 1.8-.01 6.18-1.47 8.45-3.15 4.9-8.89 9.82-10.6 12.48-.29.45-.3.69-.12.81.42.27 1.89-.18 3.12-.32.65-.08 1.87-.14 2.54.28.36.23.55.6.41 1.2-.04.11-.09.22-.15.31-.75 1.16-3.05 1.02-4.22 1.03-2 .02-4.52-.22-6.16 1.13-6.11 5.04-15.38 15.06-17.32 18.06-.5.78-1.39.87-1.95.5-.83-.53-.56-1.59.2-2.76 3.6-5.59 15.09-15.13 15.79-16.23.45-.7.31-1.11-.2-1.43-1.08-.7-4.08-1.6-4.99-2.18-1.38-.89-2.13-2.69-4.43-4.17-3.5-2.26-8.69 5.29-14.91 5.01-.19-.03-.44-.12-.63-.24-.88-.57-.88-1.71-.29-2.63 2.26-3.5 7.06-4.88 10.29-6.91.62-.39.96-.67 1.1-.88.16-.25.05-.41-.17-.55-.25-.16-.64-.3-.98-.52-.55-.36-.98-1.03-.64-1.55.72-1.12 2.83-.41 3.72.16.18.11.32.22.47.31 2.01 1.3 10.23-3.45 11.76-5.82 1.93-2.99 1.25-5.27.22-6.81-.23-.35-.24-.71-.08-.97zm-12.72 18.24c.02-.02.02-.04.03-.06-.67-.17-7.2 3.86-7.39 4.16v.01c.77-.22 6.89-3.38 7.36-4.11zm30.54-11.87c-.44-.29-1.34-.11-2.19.03-4.13.72-12.59 3.33-15.87 5.83-2.23 1.72-6.01 3.95-7.61 6.43-.9 1.39 2.65 3.68 4.59 4.93 2.52 1.63 5.61 2.86 7.77 1.03 2.79-2.37 8.4-8.51 11.82-13.81.76-1.18 2.42-3.84 1.49-4.44zM193.39 510.02c-.83 1.59-1.33 2.9-.42 3.37 2.24 1.17 10.62-6.1 12.64-7.05.67-.32 2.02-1.09 2.72-.73.5.26.74 1.01.46 1.56-.62 1.2-3.35 1.8-4.19 2.45-3.09 2.39-10.18 7.77-13.4 6.09-2.21-1.15-1.7-3.77-.29-6.49 3.8-7.31 17.26-22.78 20.57-26.8.57-.69 1.84-2.16 2.86-1.63.81.42.72 1.25.33 2-1.34 2.57-7.4 8.61-10.68 12.68-1.12 1.38-8.47 10.47-10.6 14.55z"
		class="st1"/>
	<path
		d="M227.47 512.85c.56.25.88 1.09.64 1.64-.18.41-.58.72-1.06.9-2.08.8-8.91 3.13-11.99 1.78-1.1-.48-1.72-1.43-1.48-3.08.1-.73 1.17-2.67.55-2.94-.5-.22-1.75.51-2.12.66-1.4.59-5.17 1.68-7.05.86-1.09-.48-1.38-1.77-.76-3.2 1.26-2.88 6.12-6.2 9.24-4.83 1.47.65 1.75 2.15 2.34 2.41.98.43 2.57-1.79 3.78-1.27.7.31.88 1.13.59 1.78-.85 1.93-2.54 3.08-3.54 5.37-.32.72-.71 1.69-.02 1.99 2.56 1.12 7.12-1.11 9.31-1.96.53-.21 1.11-.31 1.57-.11zm-20.44-2.98c-.08.18-.08.3.1.38.96.42 5.44-1.04 5.84-1.96.16-.36-.23-.81-.74-1.04-1.45-.63-4.53 1.08-5.2 2.62z"
		class="st1"/>
	<path
		d="M240.2 519.26c-2.26-.74-3.9 3.78-6.19 3.04-.84-.27-.8-1.33-.52-2.17.36-1.11 2.21-4.17 2.7-5.68.15-.46.17-.78-.02-.84-1.85-.6-8.51 8.52-11.93 7.41-.74-.24-.68-1.18-.34-2.2.95-2.92 4.4-9.21 5.87-9.96.3-.15.58-.17.82-.1.67.22 1.02 1.23.72 2.16-.29.89-2.11 3.3-2.38 4.14-.04.12-.06.24.03.27.94.31 5.47-5.58 8.59-4.56 1.82.59 1.57 2.61 1.18 3.82-.17.51-.37.99-.5 1.4-.19.59-.24 1.02.17 1.15.92.3 2.05-.86 3.16-.5 2.62.85 1.49 4.81 3.58 5.49 2.87.94 7.56-1.02 8.25-.79.5.16.97.7.72 1.47-.72 2.21-7.83 2.53-10.02 1.82-1.09-.36-2.01-1.06-2.56-2.34-.33-.77-.54-2.77-1.33-3.03z"
		class="st1"/>
	<path
		d="M268.36 524.11c.25.06.49.21.69.49.25.35.31.71.24 1.03-.09.4-.39.75-.81 1-3.3 2.02-10.23 5.65-15.65 4.39-2.07-.48-3.79-2.44-3.16-5.15.8-3.46 6.28-8.83 9.94-7.98 1.28.3 2.36 1.89 1.98 3.54-.76 3.26-4.93 4.31-7.34 3.75-.94-.22-1.8.35-1.99 1.17-.28 1.19.54 2.06 1.55 2.29 4.21.98 9.6-2.03 12.96-4.15.5-.28 1.09-.5 1.59-.38zm-9.89-3.3c-.56-.13-2.21.8-2.33 1.29-.03.13.03.22.17.26.79.18 2.26-1.01 2.33-1.29.03-.14-.02-.23-.17-.26z"
		class="st1"/>
	<path
		d="M266.12 528.44c.63-3.89 3.46-7.86 6.7-7.33 1.04.17 2.9 1.65 3.69 1.78 1.38.22 5.31-20.64 11.27-19.68 2.72.44 3.72 3.84 3.35 6.13-1.13 6.99-6.93 10.17-10.45 14.17-2.25 2.55-5.36 14.86-6.11 19.49-.05.31-.09.74-.16 1.2-.17 1.04-.51 2.18-1.51 2.01-1.38-.22-1.29-2.05-1.06-3.45.64-3.97 2.12-7.36 2.75-11.26.12-.75.06-1.05-.14-1.09-1.05-.17-3.92 2.91-6.01 2.57-2.1-.33-2.66-2.48-2.32-4.54zm3.2 1.62c1.64.27 5.1-2.65 5.36-4.28.13-.81-.68-1.7-1.98-1.91-2.12-.34-3.61 2.69-3.94 4.68-.13.83-.01 1.42.56 1.51zm11.9-11.48c-.06.36-.03.58.11.6 1.4.23 6.73-6.19 7.4-10.3.15-.93-.09-2.4-1.16-2.57-2.1-.34-5.82 9.04-6.35 12.27zM305.84 528.26c.62.05 1.18.74 1.13 1.35-.04.44-.32.87-.71 1.19-1.71 1.43-7.41 5.85-10.77 5.57-1.19-.1-2.09-.8-2.4-2.43-.14-.73.24-2.91-.44-2.96-.54-.04-1.49 1.05-1.79 1.32-1.13 1.01-4.35 3.26-6.39 3.09-1.19-.1-1.88-1.23-1.75-2.78.26-3.13 3.78-7.85 7.18-7.56 1.6.13 2.35 1.46 3 1.52 1.06.09 1.85-2.53 3.16-2.42.76.06 1.19.79 1.14 1.49-.18 2.1-1.4 3.74-1.61 6.22-.07.79-.12 1.83.62 1.89 2.79.23 6.38-3.35 8.18-4.87.44-.37.96-.66 1.45-.62zm-20.3 3.8c-.02.2.02.31.22.33 1.05.09 4.81-2.75 4.89-3.74.03-.4-.48-.7-1.04-.74-1.57-.14-3.93 2.48-4.07 4.15zM320.4 532.83c-.22-3.93 1.68-8.41 4.96-8.6 1.05-.06 3.18.99 3.99.94 1.39-.08.74-21.3 6.77-21.64 2.75-.16 4.46 2.95 4.59 5.27.4 7.07-4.57 11.42-7.16 16.08-1.65 2.97-2.04 15.67-1.78 20.34.02.31.07.75.1 1.21.06 1.05-.03 2.23-1.04 2.29-1.4.08-1.7-1.72-1.78-3.13-.23-4.02.49-7.65.26-11.59-.04-.76-.17-1.04-.37-1.03-1.06.06-3.21 3.68-5.31 3.8-2.11.12-3.11-1.86-3.23-3.94zm3.48.89c1.66-.09 4.41-3.68 4.31-5.33-.05-.82-1.03-1.51-2.34-1.44-2.14.12-2.95 3.41-2.84 5.41.05.85.29 1.4.87 1.36zm9.15-13.77c.02.36.09.58.24.57 1.42-.08 5.24-7.5 5.01-11.65-.05-.94-.6-2.32-1.69-2.26-2.13.12-3.74 10.07-3.56 13.34zM354.27 524.86c.26-.03.53.03.82.23.36.25.54.56.58.89.05.41-.11.84-.41 1.22-2.4 3.03-7.66 8.82-13.18 9.5-2.11.26-4.39-.99-4.73-3.75-.44-3.52 2.86-10.45 6.6-10.91 1.3-.16 2.87.97 3.07 2.64.41 3.32-3.15 5.74-5.6 6.04-.96.12-1.57.95-1.46 1.78.15 1.21 1.21 1.75 2.24 1.62 4.29-.53 8.32-5.2 10.75-8.35.33-.44.8-.84 1.32-.91zm-10.42.3c-.57.07-1.8 1.52-1.74 2.01.02.13.1.2.25.18.81-.1 1.78-1.73 1.74-2.01-.02-.13-.11-.2-.25-.18zM404.33 514.78c.28-.65.65-1.62 1.34-1.83.58-.18 1.36.3 1.53.86.32 1.05-.65 2.67-1.08 3.53-3.61 7.11-13.22 20.21-22.63 23.1-6.7 2.05-11.29-1.58-13.15-7.64-1.29-4.19-1.17-9.16-.35-12.85 2.06-9.32 10.08-27.05 21.12-30.43 2.96-.91 6.18.17 7.41 4.17 1.13 3.68 1.15 12.54-1.72 13.42-.58.18-1.14-.21-1.37-.95-.44-1.43 1.99-7.06.56-11.73-.57-1.87-1.97-3.16-4.25-2.46-9.43 2.89-22.57 28-19.06 39.46 1.7 5.54 5.45 7.88 9.93 6.5 9.31-2.87 18.53-15.74 21.72-23.15z"
		class="st1"/>
	<path
		d="M420.09 503.84c.24-.1.52-.12.85-.01.41.13.67.38.81.69.16.37.13.84-.05 1.29-1.45 3.58-4.87 10.62-9.97 12.83-1.95.84-4.5.29-5.6-2.26-1.41-3.26-.2-10.83 3.26-12.33 1.2-.52 3.02.12 3.69 1.67 1.33 3.07-1.41 6.4-3.67 7.38-.89.38-1.23 1.35-.9 2.12.48 1.12 1.66 1.34 2.61.93 3.97-1.72 6.52-7.33 7.96-11.04.19-.53.53-1.06 1.01-1.27zm-9.92 3.22c-.52.23-1.3 1.96-1.1 2.42.05.12.15.17.29.11.75-.32 1.22-2.16 1.1-2.42-.05-.13-.16-.17-.29-.11z"
		class="st1"/>
	<path
		d="M418.91 498.82c.56-.28 1.32-.06 1.82.94.33.67.44 1.57.8 2.29.11.23.23.36.35.3.83-.42.34-6.44 3.33-7.93.81-.4 1.58-.2 1.9.44.21.43.17 1.01-.31 1.61-2.94 3.64-2.56 9.63-2.58 14.13 0 .73-.36 1.3-.83 1.53-.57.29-1.32.08-1.83-.94-1.21-2.41-1.57-4.98-2.37-7.43-.47-1.47-1.75-4.21-.28-4.94zM446.07 491.94c.48.84-.19 1.66-.95 2.1-3.27 1.87-5.89.24-6.54.62-.63.36 2.07 12.53-1.75 14.72-1.34.77-2.8-.61-3.66-2.11-1.99-3.47-2.54-6.47-3.42-9.77-.3-1.14-1.1-3.2.22-3.96.61-.35 1.26-.03 1.67.68 1.34 2.34 1.61 7.96 3.64 11.51.18.31.33.48.45.41 1.8-1.03-.53-13.38-.66-15.51-.07-1.17-.26-3.79 1.11-4.57.55-.31 1.36-.04 1.66.48.87 1.51-.24 2.17.77 3.94.87 1.52 2.58 2.36 4.71 1.45.94-.44 1.97-1.35 2.75.01z"
		class="st1"/>
	<path
		d="M456.77 481.87c.22-.14.49-.21.83-.16.43.06.73.26.92.54.22.34.28.8.17 1.28-.8 3.78-2.94 11.31-7.58 14.37-1.77 1.17-4.38 1.07-5.91-1.25-1.96-2.96-2.09-10.63 1.06-12.71 1.09-.72 3-.41 3.93 1 1.84 2.79-.27 6.54-2.33 7.9-.81.53-.98 1.55-.52 2.25.67 1.02 1.87 1.03 2.73.46 3.61-2.38 5.13-8.36 5.91-12.26.11-.56.35-1.13.79-1.42zm-9.21 4.9c-.48.32-.94 2.16-.67 2.57.07.11.18.14.31.05.68-.45.82-2.33.66-2.58-.07-.1-.17-.12-.3-.04z"
		class="st1"/>
	<path
		d="M454.72 477.14c.51-.38 1.29-.28 1.95.61.44.6.7 1.47 1.18 2.12.15.2.29.31.39.24.75-.55-.79-6.4 1.9-8.39.73-.54 1.52-.47 1.95.1.28.38.35.96-.02 1.63-2.27 4.1-.84 9.93-.08 14.37.12.72-.12 1.34-.55 1.65-.51.38-1.29.31-1.97-.61-1.61-2.17-2.42-4.63-3.62-6.91-.72-1.36-2.45-3.83-1.13-4.81zM481.25 461.75c.47-.4 1.36-.31 1.76.15.29.34.39.84.35 1.34-.2 2.22-1.1 9.38-3.67 11.56-.91.77-2.04.92-3.42-.02-.61-.41-1.89-2.22-2.4-1.78-.42.35-.31 1.8-.33 2.2-.08 1.52-.76 5.38-2.33 6.71-.91.77-2.2.46-3.21-.73-2.03-2.39-2.88-8.22-.28-10.43 1.23-1.04 2.7-.63 3.19-1.05.82-.69-.48-3.1.52-3.95.58-.49 1.4-.29 1.86.25 1.36 1.61 1.66 3.63 3.27 5.53.51.6 1.21 1.38 1.78.89 2.13-1.81 2.14-6.88 2.33-9.23.04-.56.21-1.12.58-1.44zM469.6 478.8c.13.15.24.2.39.07.8-.68 1.45-5.34.81-6.1-.26-.3-.83-.15-1.26.21-1.21 1.02-1.02 4.54.06 5.82z"
		class="st1"/></svg>
